#!OML:ASF F:\VICON\USERDATA\INSTALL\SteveWalk\SteveWalk.ASF
:FULLY-SPECIFIED
:DEGREES
16
root -1.46033 16.2014 -41.7565 17.7066 -5.46972 -1.39927
lowerback -17.1423 2.61739 0.777571
upperback -3.76534 3.26152 0.682872
thorax 5.56153 1.60364 0.986574
lowerneck -3.75005 -0.477712 0.879877
upperneck 6.29735 -0.429391 -3.98611
head 2.64576 -0.318856 -1.45006
rclavicle 3.35698e-014 2.06736e-014
rhumerus -14.4782 8.97917 -85.5062
rradius 48.4689
rwrist -13.49
rhand -16.0967 -35.9784
rfingers 7.12502
rthumb 10.1069 -65.7157
lclavicle 3.35698e-014 2.06736e-014
lhumerus -57.9185 22.9661 64.4628
lradius 12.2717
lwrist -39.1232
lhand -8.33254 -16.3338
lfingers 7.12502
lthumb 17.5888 12.8906
rfemur -3.24 -6.6055 19.9273
rtibia 21.0549
rfoot -25.0308 13.4343
rtoes -14.839
lfemur -46.8168 7.46957 -20.9633
ltibia 8.64555
lfoot -6.79476 1.76193
ltoes -15.8536
17
root -1.44138 16.1677 -41.5219 17.7158 -5.47174 -1.41465
lowerback -17.2784 2.6398 0.78839
upperback -3.80072 3.29481 0.561732
thorax 5.60454 1.62007 0.865002
lowerneck -3.56602 -0.432699 0.948162
upperneck 6.16261 -0.386734 -3.84904
head 2.56713 -0.288695 -1.4125
rclavicle 7.9079e-015 7.15625e-015
rhumerus -14.4419 9.09465 -85.523
rradius 48.8376
rwrist -14.1092
rhand -17.0389 -34.205
rfingers 7.12502
rthumb 9.19783 -63.9844
lclavicle 7.9079e-015 7.15625e-015
lhumerus -59.4335 23.8985 62.1906
lradius 12.091
lwrist -39.9801
lhand -9.01547 -15.5605
lfingers 7.12502
lthumb 16.9315 13.7215
rfemur -2.34742 -6.33244 19.6558
rtibia 21.0501
rfoot -24.6965 13.4011
rtoes -16.4768
lfemur -46.6791 7.42283 -21.092
ltibia 7.86816
lfoot -6.98794 0.952824
ltoes -15.9126
18
root -1.42492 16.1327 -41.2904 17.6629 -5.47547 -1.29653
lowerback -17.1695 2.68888 0.667543
upperback -4.04781 3.39814 0.328937
thorax 5.28977 1.67188 0.695495
lowerneck -2.80056 -0.523518 1.13785
upperneck 5.99195 -0.530392 -3.74139
head 2.36516 -0.34394 -1.40569
rclavicle -6.73383e-015 5.96354e-015
rhumerus -14.9819 8.85203 -85.6933
rradius 49.3401
rwrist -14.2236
rhand -16.7735 -38.0223
rfingers 7.12502
rthumb 9.45387 -67.7902
lclavicle -6.73383e-015 5.96354e-015
lhumerus -61.3347 24.6299 59.2944
lradius 11.7715
lwrist -41.488
lhand -9.49277 -15.8859
lfingers 7.12502
lthumb 16.4721 13.4348
rfemur -1.56264 -5.83282 19.2748
rtibia 21.3071
rfoot -23.7631 13.7264
rtoes -15.8604
lfemur -46.5036 7.30038 -21.3768
ltibia 7.53061
lfoot -7.1837 0.406395
ltoes -16.4149
19
root -1.40589 16.1001 -41.0526 17.5939 -5.53307 -0.960438
lowerback -17.4117 2.53508 0.105865
upperback -3.58746 3.29713 0.276112
thorax 5.88323 1.6107 0.960789
lowerneck -4.19638 -0.442311 1.03829
upperneck 6.14309 -0.415774 -3.69952
head 2.67666 -0.302066 -1.38642
rclavicle 1.0871e-014 8.94531e-015
rhumerus -14.0217 8.96444 -85.4553
rradius 49.7365
rwrist -14.0798
rhand -17.9298 -35.0625
rfingers 7.12502
rthumb 8.33805 -64.8779
lclavicle 1.0871e-014 8.94531e-015
lhumerus -62.9249 27.6718 54.9274
lradius 11.0649
lwrist -45.1504
lhand -9.74036 -17.1643
lfingers 7.12502
lthumb 16.2337 12.176
rfemur -0.977457 -5.35937 18.6481
rtibia 21.8875
rfoot -22.6164 14.1651
rtoes -14.2558
lfemur -46.2428 7.11351 -21.9325
ltibia 7.64485
lfoot -7.51789 0.152938
ltoes -17.6145
